<?xml version="1.0" encoding="UTF-8" standalone="no"?>
<!-- Created with Inkscape (http://www.inkscape.org/) -->

<svg
   xmlns:dc="http://purl.org/dc/elements/1.1/"
   xmlns:cc="http://creativecommons.org/ns#"
   xmlns:rdf="http://www.w3.org/1999/02/22-rdf-syntax-ns#"
   xmlns:svg="http://www.w3.org/2000/svg"
   xmlns="http://www.w3.org/2000/svg"
   xmlns:sodipodi="http://sodipodi.sourceforge.net/DTD/sodipodi-0.dtd"
   xmlns:inkscape="http://www.inkscape.org/namespaces/inkscape"
   width="300"
   height="80"
   viewBox="0 0 79.374998 21.166667"
   version="1.1"
   id="svg8"
   inkscape:version="0.92.3 (2405546, 2018-03-11)"
   sodipodi:docname="brenocunha.svg">
  <defs
     id="defs2" />
  <sodipodi:namedview
     id="base"
     pagecolor="#ffffff"
     bordercolor="#666666"
     borderopacity="1.0"
     inkscape:pageopacity="0.0"
     inkscape:pageshadow="2"
     inkscape:zoom="2.8"
     inkscape:cx="43.072484"
     inkscape:cy="-23.484862"
     inkscape:document-units="mm"
     inkscape:current-layer="g902"
     showgrid="false"
     units="px"
     inkscape:window-width="2560"
     inkscape:window-height="1375"
     inkscape:window-x="0"
     inkscape:window-y="0"
     inkscape:window-maximized="1" />
  <metadata
     id="metadata5">
    <rdf:RDF>
      <cc:Work
         rdf:about="">
        <dc:format>image/svg+xml</dc:format>
        <dc:type
           rdf:resource="http://purl.org/dc/dcmitype/StillImage" />
        <dc:title></dc:title>
      </cc:Work>
    </rdf:RDF>
  </metadata>
  <g
     inkscape:label="Layer 1"
     inkscape:groupmode="layer"
     id="layer1"
     transform="translate(0,-275.8333)">
    <g
       transform="matrix(0.12465578,0,0,-0.12465578,1.2556546,296.02774)"
       inkscape:label="MINI CARTÃO BRANCO"
       id="g842">
      <g
         id="g844">
        <path
           inkscape:connector-curvature="0"
           id="path846"
           style="fill:#41c1c9;fill-opacity:1;fill-rule:nonzero;stroke:none"
           d="m 73.0993,33.855 c -1.4672,0.4181 -2.988,0.8362 -4.5491,1.266 -9.5641,2.6322 -20.5531,5.6582 -29.5049,11.1761 9.0759,-11.1719 22.9189,-18.3169 38.4349,-18.3169 2.626,0 5.203,0.2089 7.719,0.6029 -3.4789,2.098 -7.501,3.9629 -12.0999,5.2719 z m 4.3812,93.1252 c -19.0879,0 -35.6411,-10.811 -43.9002,-26.638 -9.3619,-38.863 19.6422,-47.8139 43.0172,-54.248 1.5701,-0.4312 3.0988,-0.8521 4.574,-1.2722 8.5411,-2.431 15.1761,-6.5889 20.0971,-10.7558 15.3229,8.4138 25.7119,24.6988 25.7119,43.414 0,27.3379 -22.1621,49.5 -49.5,49.5 z M 75.5362,42.2379 c -18.4198,5.0692 -44.4628,12.24 -47.4528,38.2992 -0.0612,-1.012 -0.1032,-2.029 -0.1032,-3.0572 0,-3.5478 0.381,-7.0058 1.0911,-10.3419 1.8,-3.8599 4.394,-7.2771 7.812,-10.2631 9.225,-8.0629 22.5629,-11.7329 34.3309,-14.9718 1.567,-0.4311 3.096,-0.852 4.5692,-1.2721 7.7808,-2.213 13.9618,-5.8729 18.6959,-9.654 0.9459,0.3461 1.8729,0.7291 2.7899,1.129 -4.4059,3.4881 -10.105,6.852 -17.193,8.868 -1.4638,0.4169 -2.9821,0.835 -4.54,1.2639 z m -1.889,-6.459 c 5.6668,-1.6118 10.4718,-4 14.4868,-6.6368 0.947,0.2078 1.8841,0.4459 2.8102,0.707 -4.2412,3.134 -9.5431,6.0659 -15.9811,7.8979 -1.4661,0.417 -2.9861,0.8351 -4.5451,1.2631 -11.48,3.1609 -25.7669,7.092 -35.5091,15.6059 -0.8929,0.7801 -1.7178,1.595 -2.5098,2.4261 0.8538,-1.879 1.8131,-3.7012 2.8869,-5.4462 9.3041,-7.8018 22.566,-11.4568 33.7952,-14.5468 1.567,-0.4311 3.0928,-0.851 4.566,-1.2702" />
        <path
           inkscape:connector-curvature="0"
           id="path848"
           style="fill:#ffffff;fill-opacity:1;fill-rule:nonzero;stroke:none"
           d="m 49.1856,81.7571 c -0.0059,0.0108 -0.0119,0.0199 -0.0178,0.0298 -0.0102,0.0051 -0.019,0.0102 -0.0301,0.015 z" />
        <path
           inkscape:connector-curvature="0"
           id="path850"
           style="fill:#ffffff;fill-opacity:1;fill-rule:nonzero;stroke:none"
           d="m 92.1339,57.6218 c 0,9e-4 -0.0011,0.0029 -0.0011,0.006 -9e-4,-0.0031 -9e-4,-0.0051 -9e-4,-0.006 z" />
        <path
           inkscape:connector-curvature="0"
           id="path852"
           style="fill:#ffffff;fill-opacity:1;fill-rule:nonzero;stroke:none"
           d="m 55.6339,89.2205 c -0.3169,0.0419 -0.6911,0.5139 -0.8019,0.8719 -0.0491,0.1559 0.4929,0.7022 0.767,0.7022 0.343,0 0.6849,-0.3802 1.2708,-0.7492 -0.5749,-0.4091 -0.9388,-0.864 -1.2359,-0.8249 z M 46.281,72.1466 c 0,-2.1093 0.0218,-4.1092 -0.0091,-6.1073 -0.015,-1.0859 -0.2109,-2.1739 -0.1621,-3.2559 0.0901,-1.991 1.47,-3.5889 3.331,-4.0391 1.8141,-0.4379 3.3451,0.216 4.297,2.2431 0.6242,1.33 0.9419,2.8539 1.11,4.324 0.059,0.5091 -0.638,1.4201 -1.18,1.6152 -1.0488,0.3758 -1.4168,-0.5111 -1.5639,-1.4103 -0.0419,-0.2548 -0.2231,-0.989 -0.36,-1.1628 -0.434,-0.551 -0.466,-1.2401 -1.1659,-1.1571 -0.6392,0.0749 -1.0012,1.2039 -0.892,1.664 0.697,2.9619 1.468,5.9159 2.425,8.8021 0.3949,1.192 1.2367,2.27 2.0319,3.276 0.2809,0.3529 1.1089,0.8119 1.5641,0.491 0.4709,-0.3342 0.1758,-1.1702 0.08,-1.7221 -0.1052,-0.6001 -0.2812,-1.1259 -0.656,-1.741 -0.0553,-0.0899 -0.5641,-0.447 -0.172,-0.7659 0.2429,-0.197 0.661,0.2919 0.75,0.3809 0.4799,0.4851 1.6308,1.8519 2.4069,2.808 0.4158,0.51 0.6421,1.2411 1.148,1.5869 0.436,0.2982 1.2371,0.3931 1.7039,0.1871 0.2892,-0.1279 0.3861,-1.0001 0.332,-1.512 -0.0629,-0.603 -0.383,-1.1781 -0.5919,-1.7629 -0.5961,-1.673 -0.013,-2.4642 1.713,-2.1231 0.6999,0.138 1.529,0.549 1.9239,1.104 0.7081,0.995 1.2931,2.1439 1.6389,3.314 0.72,2.4299 1.9412,4.3929 4.0261,5.921 1.2821,0.938 2.355,2.198 3.397,3.4189 1.281,1.5012 1.3901,3.8622 0.4051,5.3932 -0.8889,1.3819 -2.4171,1.768 -4.6261,1.1529 -0.6509,-0.182 -1.2838,-0.423 -1.9338,-0.6061 -2.4492,-0.6919 -3.6522,-0.0298 -4.199,2.4421 -0.195,0.8841 -0.6092,1.356 -1.451,1.5661 -0.8541,0.214 -1.6841,0.5448 -2.5481,0.703 -2.573,0.4688 -4.7279,-0.3552 -5.7971,-2.6121 -0.955,-2.0141 -2.367,-3.4651 -4.07,-4.7909 -0.849,-0.6602 -1.622,-1.5032 -2.198,-2.4111 -1.3799,-2.179 -1.59,-4.5791 -1.133,-7.492 0.79,0.906 1.3042,1.4689 1.7872,2.0571 0.6058,0.7379 0.889,0.4439 1.5248,-0.138 0.9082,-0.8331 0.7812,-1.4301 0.2911,-2.0441 -0.7319,-0.913 -1.5951,-1.832 -2.5991,-2.3939 -1.7609,-0.9822 -1.12,-2.529 -1.0179,-3.833 z" />
        <path
           inkscape:connector-curvature="0"
           id="path854"
           style="fill:#ffffff;fill-opacity:1;fill-rule:evenodd;stroke:none"
           d="m 103.3781,80.9442 c -0.9309,0.0569 0.0771,1.7807 0.049,2.4627 -0.028,0.631 -0.108,1.4902 -0.5119,1.8091 -0.394,0.3109 -1.3941,0.314 -1.8383,0.019 -1.332,-0.8859 -2.5829,-1.9219 -3.7187,-3.0479 -0.2432,-0.2412 -0.059,-1.4229 0.265,-1.6211 0.701,-0.4309 1.6109,-0.5831 2.4559,-0.7041 1.1058,-0.1579 1.429,-0.6968 0.87,-1.6778 -1.5831,-2.78 -3.3171,-3.3452 -6.3071,-2.1651 -0.4708,0.1879 -1.2968,0.2281 -1.6038,-0.0519 -0.9372,-0.8572 -1.7201,-0.3742 -2.681,-0.131 -1.7961,0.4519 -3.6462,0.815 -5.4922,0.9309 -2.315,0.146 -3.537,0.601 -3.6249,2.977 -0.002,0.4561 0.011,1.2121 0.5479,1.5199 0.6421,0.3691 1.2402,-0.483 1.745,-0.7688 1.9381,-1.1012 3.761,-0.5091 4.4541,1.607 0.2971,0.9079 0.415,1.9429 0.332,2.8959 -0.245,2.8131 0.3931,3.9081 3.031,5.074 0.7869,0.347 1.516,0.8881 2.168,1.4581 0.7469,0.654 1.5029,1.4528 0.945,2.56 -0.6111,1.2138 -1.6891,1.8139 -3.0639,1.7269 -0.9601,-0.0601 -2.2261,-1.0681 -2.9271,-0.326 -1.0601,1.1219 2.554,4.4331 5.1599,4.0011 6.5191,-1.0811 11.1062,-4.6012 13.5321,-10.8162 0.4161,-1.063 0.892,-2.1038 1.2489,-3.185 0.1321,-0.4008 0.1879,-1.112 -0.038,-1.2999 -1.487,-1.2331 -3.494,-3.3381 -4.9969,-3.2468" />
        <path
           inkscape:connector-curvature="0"
           id="path856"
           style="fill:#ffffff;fill-opacity:1;fill-rule:evenodd;stroke:none"
           d="m 93.2168,94.4226 c -0.1049,0.3419 -1.1299,0.51 -1.753,0.5499 -0.487,0.0321 -1.061,-0.1831 -1.5681,-0.227 -0.76,-0.0669 -1.5228,-0.305 -2.0738,0.0229 -0.148,0.0882 -0.3161,-0.0218 -0.341,0.4782 -0.0791,1.5988 1.025,3.0059 3.3258,4.4178 -6.6529,-0.496 -13.8418,-0.8589 -19.6908,-3.5319 -0.7512,-0.129 -1.5021,-0.3039 -2.251,-0.5471 -1.1342,-0.368 -2.5081,0.0051 -3.7712,0.0332 -0.3759,0.009 -0.7498,0.0019 -1.1659,0.0019 0.3719,-1.8249 1.209,-2.4871 2.721,-2.209 0.7591,0.1389 1.4839,0.4601 2.228,0.6851 2.408,0.7308 4.6749,0.1829 5.9669,-1.5012 1.472,-1.9188 1.2271,-3.947 0.0012,-5.811 -0.8731,-1.3278 -1.8871,-2.6858 -3.1471,-3.6099 -2.8281,-2.0759 -4.462,-4.8201 -5.5559,-8.0609 -0.3662,-1.0812 -1.152,-2.073 -1.9222,-2.9492 -0.786,-0.8918 -3.181,-1.2209 -3.9319,-0.5848 -1.135,0.9598 -0.5851,2.1699 -0.2469,3.3069 0.1188,0.396 0.3818,0.7849 0.3779,1.175 -0.006,0.5031 0.271,1.2801 -0.2191,1.4391 -0.4479,0.144 -1.08,-0.5071 -1.1418,-0.8651 -0.2152,-1.2509 -0.796,-2.1161 -0.8193,-3.39 -0.0209,-1.1321 -0.0269,-2.7351 -8e-4,-3.8709 0.0201,-0.8332 0.328,-1.749 0.6401,-2.4271 1.4768,-3.215 1.7648,-6.3071 -0.059,-9.5139 -0.6032,-1.059 -0.1032,-1.976 1.2878,-1.921 2.23,0.0878 4.4671,0.1649 6.6761,0.4439 0.4981,0.0629 1.2019,0.9011 1.2751,1.453 0.252,1.8989 0.301,3.8271 0.3639,5.747 0.116,3.4991 1.4851,6.4119 3.922,8.894 2.3749,2.4179 5.3901,3.7012 8.7639,4.606 0.6812,0.1839 -0.3628,1.2149 -0.487,1.76 -0.138,0.6049 -0.4269,1.2651 -0.297,1.8181 0.1851,0.794 0.5102,1.8 1.114,2.1739 0.5,0.3121 1.61,0.053 2.2331,-0.3189 2.219,-1.3232 3.2539,-0.8481 3.511,1.7969 0.0499,0.5139 0.0471,1.0389 0.013,1.5551 -0.2029,2.988 0.5361,4.172 3.32,5.457 0.8379,0.3858 1.775,0.771 2.3558,1.4298 0.4153,0.4702 0.5381,1.4692 0.3462,2.0942" />
        <path
           inkscape:connector-curvature="0"
           id="path858"
           style="fill:#ffffff;fill-opacity:1;fill-rule:evenodd;stroke:none"
           d="m 109.1543,83.0846 c -0.521,1.0831 -2.0671,-0.9159 -2.725,-1.2821 -2.321,-1.2937 -3.073,-1.893 -3.681,-1.4689 -0.273,0.189 -0.2829,1.2319 -0.2591,1.385 0.0952,0.5902 0.769,1.8161 -0.3419,2.7561 -0.9011,0.7628 -4.3829,-2.1299 -3.712,-3.291 0.597,-1.033 2.8599,-0.6721 3.5261,-1.5302 0.1,-0.1298 0.1527,-0.4509 0.119,-0.4399 0.235,-0.383 -0.9201,-2.065 -1.3272,-2.842 -0.1828,-0.1789 -0.3659,-0.3691 -0.5471,-0.5831 -1.0338,-1.222 -2.3147,-1.5069 -4.5147,-0.9479 -0.362,0.0921 -1.4922,0.5009 -1.764,0.597 -0.2531,0.0881 -0.6721,-0.2271 -0.8892,-0.5361 -0.1951,-0.2778 0.3322,-0.8838 0.4901,-1.1639 0.2001,-0.3529 0.559,-0.6131 0.8149,-0.9379 2.2301,-2.827 3.7112,-5.8822 2.9639,-9.6342 -0.4138,-2.084 -0.7457,-4.187 -1.1758,-6.2679 -0.2171,-1.046 0.029,-1.6461 1.177,-1.5999 1.7098,0.0649 3.4211,0.121 5.125,0.2599 3.147,0.256 3.519,0.745 3.1349,3.9019 -0.038,0.307 -0.1239,0.61 -0.1948,0.9131 -0.809,3.4409 -1.6772,6.8839 -1.296,10.4609 0.165,1.5381 0.4408,3.079 0.8498,4.5672 0.1112,0.4068 0.8229,1.1228 1.353,0.9389 0.5222,-0.1809 0.5412,-1.073 0.4791,-1.5679 -0.0961,-0.752 -0.5369,-1.453 -0.7331,-2.2022 -0.0759,-0.292 0.0162,-0.8249 0.2089,-0.938 0.2291,-0.131 0.7541,-0.0329 0.9701,0.163 0.3671,0.3342 0.7271,0.788 0.8552,1.2552 0.4019,1.4669 0.9028,3.2388 1.0828,4.663 0.002,0 0.004,0 0.006,0 v 0.036 c 0.002,0.009 0.004,0.0198 0.005,0.0289 0.008,0.0649 0.008,0.123 0,0.174 0.034,1.978 0.451,4.197 0,5.133" />
        <path
           inkscape:connector-curvature="0"
           id="path860"
           style="fill:#ffffff;fill-opacity:1;fill-rule:evenodd;stroke:none"
           d="m 49.1477,80.6253 c -0.2552,-1.3862 -4.0142,-4.9292 -6.9622,-4.4351 1.489,1.2121 3.2882,2.1231 4.3302,3.5121 0.3339,0.445 0.7869,1.455 1.516,1.709 0.4359,0.1508 1.2469,-0.0711 1.116,-0.786" />
        <path
           inkscape:connector-curvature="0"
           id="path862"
           style="fill:#ffffff;fill-opacity:1;fill-rule:nonzero;stroke:none"
           d="m 91.5508,68.4422 c -0.265,0 -0.479,0.2141 -0.479,0.4768 0,0.2642 0.214,0.4782 0.479,0.4782 0.2639,0 0.478,-0.214 0.478,-0.4782 0,-0.2627 -0.2141,-0.4768 -0.478,-0.4768 z M 88.2499,66.907 c -2.0631,-0.2359 -3.7392,0.6471 -4.4311,2.0741 -0.61,1.2592 -0.6231,2.516 0.3109,3.6499 0.974,1.1832 2.628,1.633 4.216,1.116 -1.624,-0.5907 -3.8078,-0.203 -4.216,-2.5118 -0.498,-2.806 1.5721,-3.6 4.1202,-4.3282 z m 1.5208,8.1612 c -6.757,2.6241 -16.28,-0.244 -19.3428,-8.3151 -1.235,-3.257 -0.9802,-6.645 -1.0312,-10.0021 -0.0049,-0.339 0.748,-0.9638 1.1721,-0.9827 1.6018,-0.0752 3.215,0.0308 4.822,0.0938 2.463,0.0969 2.791,0.6579 1.7751,2.9829 -0.0012,-0.0048 -0.004,-0.0099 -0.004,-0.0148 8e-4,-0.0082 0.0028,-0.017 0.004,-0.0241 -0.004,-0.0031 -0.008,-0.0059 -0.0131,-0.009 -0.3611,-1.5441 -1.6991,-1.175 -2.7221,-1.2609 -0.8019,-0.066 -1.6279,0.1579 -2.4508,0.4218 1.1239,0 2.2569,-0.0958 3.365,0.0352 0.6259,0.0759 1.209,0.515 1.8079,0.8039 0.002,0.011 0.006,0.0221 0.0091,0.0331 -0.0661,0.2999 -0.0842,0.614 -0.2081,0.8768 -1.036,2.2192 -0.2551,4.0561 1.287,5.6452 1.6001,1.6489 3.5691,1.707 5.6109,0.951 1.843,-0.68 2.7082,-1.8652 2.573,-4.123 -0.0899,-1.5131 -0.5998,-3.0112 -1.0168,-4.4901 -0.453,-1.6109 -0.161,-2.084 1.5168,-2.124 0.777,-0.019 1.563,0.0669 2.3312,-0.0221 1.6248,-0.1839 2.581,0.4672 2.8758,2.0781 -0.0049,0 -0.0088,0 -0.0139,0.0011 -1.3581,-0.5122 -2.683,-0.8591 -4.106,-0.0572 -0.4629,0.2611 -1.1591,0.1032 -1.7481,0.14 0.015,0.1582 0.0292,0.3181 0.0442,0.4782 1.9369,-0.1882 3.8738,-0.375 5.8099,-0.561 0.0051,0.002 0.0099,0.0029 0.015,0.0049 -0.2509,1.6789 -0.4862,3.3602 -0.756,5.036 -0.165,1.023 -0.148,1.9511 0.7489,2.4341 0.6171,-0.2132 1.2129,-0.633 1.493,-0.4791 1.1721,0.6469 1.442,-0.085 1.5061,-0.924 0.0949,-1.2411 0.0289,-2.4951 0.0371,-3.7429 0.0068,-1.2541 0.1168,-2.598 -2.016,-1.7521 1.923,-1.0891 2.56,-0.762 2.7538,1.1341 0.133,1.2909 0.3462,2.5739 0.491,3.8628 0.5341,4.7832 -2.2669,10.1812 -6.62,11.8712" />
      </g>
    </g>
    <g
       transform="matrix(0.35277777,0,0,-0.35277777,29.976743,343.27699)"
       inkscape:label="MINI CARTÃO BRANCO"
       id="g902">
      <path
         inkscape:connector-curvature="0"
         id="path906"
         style="fill:#41c1c9;fill-opacity:1;fill-rule:nonzero;stroke:none;stroke-width:1.47471619"
         d="m -13.298394,154.7973 h -5.447308 v 12.44439 h 4.842083 c 0.836903,0 1.56674,-0.10706 2.189955,-0.30276 0.604928,-0.19599 1.068137,-0.48061 1.370748,-0.81891 0.551839,-0.6412 0.836459,-1.37104 0.836459,-2.17211 0,-0.97891 -0.32016,-1.69135 -0.943376,-2.17196 -0.213686,-0.16015 -0.356291,-0.26722 -0.444921,-0.30276 -0.08892,-0.0534 -0.231531,-0.12446 -0.44507,-0.21354 0.765378,-0.16015 1.388593,-0.51629 1.851359,-1.03259 0.445217,-0.53385 0.676452,-1.19261 0.676452,-1.97598 0,-0.87244 -0.302759,-1.63781 -0.889991,-2.29672 -0.694444,-0.76538 -1.887047,-1.15706 -3.59639,-1.15706 z m -2.67027,7.40588 h 1.317512 c 0.765525,0 1.352758,0.0889 1.726893,0.24952 0.373693,0.16015 0.551839,0.53385 0.551839,1.08568 0,0.55214 -0.178146,0.90784 -0.516298,1.08599 -0.338153,0.17799 -0.925975,0.26707 -1.744885,0.26707 h -1.335061 z m 0,-5.05577 h 1.904891 c 0.800919,0 1.388741,0.10662 1.797975,0.30276 0.391685,0.19554 0.587674,0.56938 0.587674,1.15706 0,0.56939 -0.213539,0.94352 -0.623215,1.13907 -0.427225,0.17815 -1.103677,0.26722 -2.029505,0.26722 h -1.63782 z" />
      <path
         inkscape:connector-curvature="0"
         id="path908"
         style="fill:#41c1c9;fill-opacity:1;fill-rule:nonzero;stroke:none;stroke-width:1.47471619"
         d="m 0.5313467,162.02503 c -0.80136067,0 -1.38874017,-0.28462 -1.7804248,-0.83646 -0.3916846,-0.56983 -0.5873795,-1.31766 -0.5873795,-2.24319 v -4.14808 h -2.6702686 v 9.57784 h 2.6702686 v -1.26398 c 0.3382999,0.39168 0.7835167,0.72984 1.29966743,0.99691 0.5162981,0.26707 1.0325963,0.40967 1.56644347,0.42722 l 0.017992,-2.51026 z" />
      <path
         inkscape:connector-curvature="0"
         id="path910"
         style="fill:#41c1c9;fill-opacity:1;fill-rule:nonzero;stroke:none;stroke-width:1.47471619"
         d="m 13.346483,156.18604 c -1.085686,-1.01505 -2.349813,-1.53135 -3.7919377,-1.53135 -1.459822,0 -2.670416,0.44522 -3.61394,1.3532 -0.943523,0.89 -1.424133,2.08304 -1.424133,3.59639 0,1.51321 0.48061,2.70581 1.459674,3.59581 0.961515,0.89043 2.101028,1.3352 3.418245,1.3352 1.3172157,0 2.4387377,-0.39168 3.3647117,-1.1926 0.907983,-0.80136 1.370749,-1.88705 1.370749,-3.27564 v -1.42428 H 7.1512003 c 0.08907,-0.5163 0.356144,-0.94352 0.81891,-1.28168 0.462766,-0.33859 0.979064,-0.49875 1.566886,-0.49875 0.9433757,0 1.7089007,0.32061 2.3141247,0.94353 z m -1.922588,4.36162 c -0.05353,0.56983 -0.267071,1.01461 -0.640764,1.31722 -0.374135,0.30276 -0.8189097,0.46276 -1.3352077,0.46276 -0.53429,0 -1.015047,-0.16 -1.459822,-0.48031 -0.445216,-0.32061 -0.694296,-0.74783 -0.76582,-1.29967 z" />
      <path
         inkscape:connector-curvature="0"
         id="path912"
         style="fill:#41c1c9;fill-opacity:1;fill-rule:nonzero;stroke:none;stroke-width:1.47471619"
         d="m 20.963391,160.13813 v -5.34083 h -2.670416 v 9.57784 h 2.670416 v -1.06799 c 0.800919,0.81891 1.708901,1.22814 2.723801,1.22814 1.014605,0 1.851506,-0.3557 2.545803,-1.06799 0.676452,-0.71199 1.014604,-1.65581 1.014604,-2.84856 v -5.82144 h -2.670416 v 5.41221 c 0,1.47737 -0.534142,2.20721 -1.619828,2.20721 -0.53429,0 -0.997056,-0.19555 -1.38874,-0.56939 -0.409676,-0.39169 -0.605224,-0.96137 -0.605224,-1.7092" />
      <path
         inkscape:connector-curvature="0"
         id="path914"
         style="fill:#41c1c9;fill-opacity:1;fill-rule:nonzero;stroke:none;stroke-width:1.47471619"
         d="m 34.045599,159.58629 c 0,-0.78337 0.23153,-1.42428 0.676452,-1.90504 0.445069,-0.4983 1.0149,-0.74782 1.709196,-0.74782 0.694444,0 1.264127,0.24952 1.708901,0.74782 0.445217,0.48076 0.658903,1.12167 0.658903,1.90504 0,0.78337 -0.213686,1.42414 -0.658903,1.92244 -0.444774,0.49875 -1.014457,0.74783 -1.708901,0.74783 -0.694296,0 -1.264127,-0.24908 -1.709196,-0.74783 -0.444922,-0.4983 -0.676452,-1.13907 -0.676452,-1.92244 z m 7.441712,0 c 0,-1.38874 -0.48061,-2.56379 -1.442125,-3.50731 -0.961515,-0.94353 -2.172109,-1.42429 -3.613939,-1.42429 -1.459674,0 -2.670269,0.48076 -3.631784,1.42429 -0.961515,0.94352 -1.442272,2.11857 -1.442272,3.50731 0,1.3886 0.480757,2.5638 1.442272,3.52487 0.961515,0.94338 2.17211,1.42413 3.631784,1.42413 1.44183,0 2.652424,-0.48075 3.613939,-1.42413 0.961515,-0.96107 1.442125,-2.13627 1.442125,-3.52487" />
      <path
         inkscape:connector-curvature="0"
         id="path916"
         style="fill:#41c1c9;fill-opacity:1;fill-rule:nonzero;stroke:none;stroke-width:1.47471619"
         d="m 57.340363,157.25403 c 1.384021,0 2.498907,0.53429 3.379312,1.61998 l 1.797532,-1.83352 c -1.419709,-1.58443 -3.109292,-2.3858 -5.032617,-2.3858 -1.941759,0 -3.541531,0.60538 -4.781472,1.81597 -1.25867,1.21059 -1.887784,2.74194 -1.887784,4.5933 0,1.83351 0.647105,3.38226 1.923767,4.61085 1.275777,1.22829 2.821722,1.8515 4.673081,1.8515 2.067257,0 3.792822,-0.78337 5.177286,-2.33211 l -1.743557,-1.95857 c -0.880848,1.08612 -1.995733,1.63782 -3.307494,1.63782 -1.06091,0 -1.95975,-0.33816 -2.696666,-1.01446 -0.754612,-0.69445 -1.132434,-1.60243 -1.132434,-2.75949 0,-1.15706 0.359536,-2.10059 1.060468,-2.79488 0.70108,-0.69445 1.563937,-1.05059 2.570578,-1.05059" />
      <path
         inkscape:connector-curvature="0"
         id="path918"
         style="fill:#41c1c9;fill-opacity:1;fill-rule:nonzero;stroke:none;stroke-width:1.47471619"
         d="m 72.81456,159.2126 v 5.16254 h 2.713773 V 154.7973 H 72.81456 v 1.26413 c -0.665539,-0.94353 -1.527953,-1.40674 -2.588864,-1.40674 -1.060616,0 -1.959308,0.3383 -2.67838,0.99706 -0.718924,0.65876 -1.07846,1.62027 -1.07846,2.91994 v 5.80345 h 2.714215 v -5.21607 c 0,-1.47782 0.539304,-2.20765 1.635756,-2.20765 0.539303,0 1.006641,0.19599 1.40216,0.58738 0.395371,0.37413 0.593573,0.94382 0.593573,1.6738" />
      <path
         inkscape:connector-curvature="0"
         id="path920"
         style="fill:#41c1c9;fill-opacity:1;fill-rule:nonzero;stroke:none;stroke-width:1.47471619"
         d="m 83.039947,160.13813 v -5.34083 h -2.696223 v 9.57784 h 2.696223 v -1.06799 c 0.80844,0.81891 1.725271,1.22814 2.750199,1.22814 1.024632,0 1.869497,-0.3557 2.57043,-1.06799 0.683088,-0.71199 1.024633,-1.65581 1.024633,-2.84856 v -5.82144 h -2.696224 v 5.41221 c 0,1.47737 -0.539746,2.20721 -1.635755,2.20721 -0.539304,0 -1.006641,-0.19555 -1.40216,-0.56939 -0.413806,-0.39169 -0.611123,-0.96137 -0.611123,-1.7092" />
      <path
         inkscape:connector-curvature="0"
         id="path922"
         style="fill:#41c1c9;fill-opacity:1;fill-rule:nonzero;stroke:none;stroke-width:1.47471619"
         d="m 96.788141,159.95999 v -5.16269 h -2.696376 v 13.20977 h 2.696376 v -4.69992 c 0.80843,0.81891 1.72512,1.22814 2.75019,1.22814 1.006649,0 1.851069,-0.3557 2.552439,-1.06799 0.70108,-0.71199 1.04263,-1.65581 1.04263,-2.84856 v -5.82144 h -2.69637 v 5.23421 c 0,1.47722 -0.539599,2.2075 -1.635609,2.2075 -0.53931,0 -1.00664,-0.19599 -1.40216,-0.56968 -0.41381,-0.39168 -0.61112,-0.96152 -0.61112,-1.70934" />
      <path
         inkscape:connector-curvature="0"
         id="path924"
         style="fill:#41c1c9;fill-opacity:1;fill-rule:nonzero;stroke:none;stroke-width:1.47471619"
         d="m 116.05516,154.7973 h -2.53504 v 1.15706 c -0.70093,-0.87244 -1.54536,-1.29967 -2.57043,-1.29967 -1.02419,0 -1.8869,0.30276 -2.58798,0.89044 -0.70108,0.58738 -1.04263,1.37075 -1.04263,2.34981 0,0.97907 0.3591,1.70934 1.07861,2.18966 0.71848,0.48076 1.70758,0.73028 2.94752,0.73028 h 2.01357 v 0.0531 c 0,1.0149 -0.53959,1.5312 -1.63575,1.5312 -0.46778,0 -0.95311,-0.0891 -1.47442,-0.26707 -0.52117,-0.1957 -0.97022,-0.42723 -1.32975,-0.69445 l -1.20426,1.72689 c 1.27578,0.90799 2.71378,1.37075 4.34997,1.37075 1.16842,0 2.13908,-0.28462 2.87614,-0.87244 0.73692,-0.58723 1.11445,-1.49521 1.11445,-2.75934 z m -2.71481,3.64948 v 0.46306 h -1.68958 c -1.07817,0 -1.61777,-0.33815 -1.61777,-0.99691 0,-0.3383 0.1258,-0.60537 0.39538,-0.78337 0.25173,-0.19613 0.61127,-0.28476 1.09659,-0.28476 0.48563,0 0.8987,0.14216 1.27667,0.44477 0.35938,0.28506 0.53871,0.67689 0.53871,1.15721" />
    </g>
  </g>
</svg>
